<?xml version="1.0" encoding="UTF-8"?>
<svg version="1.1" xmlns="http://www.w3.org/2000/svg" width="432" height="431">
<path d="M0 0 C1.91024331 -0.00761181 1.91024331 -0.00761181 3.85907739 -0.0153774 C5.28045424 -0.0159791 6.70183113 -0.01647817 8.12320805 -0.01688576 C9.62692299 -0.0209 11.13063685 -0.02533816 12.63434941 -0.03016531 C16.77737923 -0.04214137 20.92039741 -0.04778168 25.06344116 -0.05234647 C29.52788011 -0.05829882 33.99230511 -0.06990975 38.45673466 -0.08063698 C49.24539844 -0.10517199 60.03406684 -0.11979108 70.82274994 -0.13269705 C73.87010158 -0.1364086 76.91745275 -0.14038188 79.96480393 -0.14444971 C98.88802782 -0.1696892 117.81125243 -0.19174262 136.73448944 -0.20417786 C141.11886885 -0.20710757 145.50324824 -0.21006923 149.8876276 -0.21308327 C150.97734838 -0.21382932 152.06706916 -0.21457537 153.18981177 -0.21534403 C170.83518083 -0.22799248 188.480449 -0.26120773 206.12577092 -0.3028851 C224.24228332 -0.34532446 242.35874412 -0.36887533 260.47530609 -0.37409842 C270.64682155 -0.37751059 280.81817945 -0.38924272 290.98964596 -0.42220116 C299.65417507 -0.4502305 308.31851434 -0.4611884 316.98308527 -0.4500057 C321.40185092 -0.44482615 325.8202192 -0.44765977 330.23892689 -0.47247124 C334.29023384 -0.4950291 338.34085948 -0.49417372 342.3921789 -0.47526737 C343.85192562 -0.47247643 345.3117192 -0.47801524 346.77139085 -0.4930803 C357.66081882 -0.59852809 366.11198872 1.28276823 375.26091862 7.32451439 C381.20972634 13.55001084 385.51925557 19.5620361 386.94841862 28.13701439 C383.64722714 29.09542482 380.99160357 29.09566337 377.63591862 28.63701439 C373.94006928 28.15521225 370.71811184 28.30390255 367.01482487 28.89092064 C364.78382104 29.15661675 362.69260234 29.09818505 360.44841862 29.01201439 C355.73463961 28.95345813 351.31317562 29.64331699 346.69841862 30.51201439 C345.68811588 30.70126488 345.68811588 30.70126488 344.65740299 30.89433861 C339.28425974 31.95860363 334.23299091 33.46721179 329.26091862 35.76201439 C325.94841862 37.13701439 325.94841862 37.13701439 322.94841862 37.13701439 C322.61841862 37.79701439 322.28841862 38.45701439 321.94841862 39.13701439 C320.27654362 40.06670189 320.27654362 40.06670189 318.19841862 41.01201439 C314.69367993 42.70524516 311.89814533 44.56545777 308.94841862 47.13701439 C308.42763737 47.5559597 307.90685612 47.97490501 307.37029362 48.40654564 C279.0350458 71.57252528 272.15719418 111.62466621 262.94841862 145.13701439 C250.57341862 145.63201439 250.57341862 145.63201439 237.94841862 146.13701439 C233.65841862 161.31701439 229.36841862 176.49701439 224.94841862 192.13701439 C232.53841862 192.46701439 240.12841862 192.79701439 247.94841862 193.13701439 C249.48036083 196.20089881 248.27481313 198.23092066 247.35979557 201.48930931 C247.08574925 202.4765529 247.08574925 202.4765529 246.80616665 203.48374081 C246.18988846 205.69697316 245.56328037 207.90714723 244.93669987 210.11748314 C244.49563925 211.69317763 244.05520829 213.2690485 243.61536503 214.84508324 C242.42088857 219.118033 241.21745931 223.38841528 240.01239109 227.65838814 C238.76054218 232.09978466 237.51681413 236.54345396 236.27214909 240.9868679 C233.68949915 250.20107259 231.09674625 259.41241227 228.50158024 268.62309837 C226.97892277 274.02760949 225.45869146 279.43280078 223.93914127 284.83818626 C218.28750573 304.94117681 212.62342254 325.0406068 206.94841862 345.13701439 C236.64841862 345.63201439 236.64841862 345.63201439 266.94841862 346.13701439 C267.60841862 342.83701439 268.26841862 339.53701439 268.94841862 336.13701439 C269.4145597 333.92589492 269.89187514 331.71706719 270.38591862 329.51201439 C270.61150455 328.48849876 270.83709049 327.46498314 271.06951237 326.41045189 C271.8941471 323.33914565 272.97340677 320.45672085 274.11663151 317.4934597 C275.86818312 312.53132992 277.11195164 307.41067583 278.44841862 302.32451439 C279.04201772 300.08879724 279.63576632 297.85311977 280.22966862 295.61748314 C280.51761295 294.52991722 280.80555729 293.4423513 281.10222721 292.32182884 C283.08038947 284.87661053 285.11781123 277.45555615 287.32341862 270.07451439 C291.19680063 256.98652934 294.84615179 243.85787974 298.05388737 230.59013939 C298.60244142 228.47257703 299.20619162 226.36726362 299.9008112 224.29302025 C300.90223617 221.27614292 301.77359559 218.25547659 302.60466862 215.18779564 C302.90502018 214.09273705 303.20537174 212.99767845 303.51482487 211.86943626 C304.14019843 209.5785804 304.76256707 207.28690223 305.38201237 204.99443626 C305.68236393 203.90324486 305.98271549 202.81205345 306.29216862 201.68779564 C306.56222721 200.69433128 306.8322858 199.70086693 307.11052799 198.67729759 C307.94841862 196.13701439 307.94841862 196.13701439 309.94841862 193.13701439 C312.71470776 192.87025279 315.25461493 192.7889725 318.01873112 192.84404564 C319.2130727 192.8504129 319.2130727 192.8504129 320.4315424 192.8569088 C322.9791759 192.87372605 325.5260235 192.9113826 328.07341862 192.94951439 C329.79866762 192.96455734 331.52392901 192.97824643 333.24919987 192.99053001 C337.48257643 193.02363938 341.7153642 193.07544154 345.94841862 193.13701439 C345.94841862 192.47701439 345.94841862 191.81701439 345.94841862 191.13701439 C347.27654362 189.83232689 347.27654362 189.83232689 349.19841862 188.26201439 C350.78473256 186.89045414 352.36757673 185.51487809 353.94841862 184.13701439 C354.47274479 183.68439232 354.99707096 183.23177025 355.5372858 182.76543236 C357.24297666 181.27085165 358.90911409 179.73994336 360.57341862 178.19951439 C361.13061588 177.72207787 361.68781315 177.24464134 362.26189518 176.75273705 C364.06413249 175.15128051 364.06413249 175.15128051 365.94841862 172.13701439 C365.82263346 169.91319723 365.33725172 168.15301587 364.57488346 166.06450462 C363.94841862 164.13701439 363.94841862 164.13701439 363.94841862 160.13701439 C363.28841862 159.80701439 362.62841862 159.47701439 361.94841862 159.13701439 C360.95841862 154.51701439 359.96841862 149.89701439 358.94841862 145.13701439 C341.62341862 145.63201439 341.62341862 145.63201439 323.94841862 146.13701439 C323.94841862 138.25577623 323.94841862 138.25577623 325.26873112 133.80107689 C325.69665958 132.33940086 325.69665958 132.33940086 326.13323307 130.84819603 C326.4434943 129.82975609 326.75375553 128.81131615 327.07341862 127.76201439 C327.54557804 126.18311424 327.54557804 126.18311424 328.02727604 124.57231712 C329.99233006 118.07692755 332.04437722 111.61360478 334.26091862 105.19951439 C334.50277897 104.49069115 334.74463932 103.7818679 334.99382877 103.05156517 C336.70368832 98.25937954 336.70368832 98.25937954 338.94841862 97.13701439 C339.67535766 95.15812478 340.34658113 93.15746881 340.94841862 91.13701439 C341.60841862 91.13701439 342.26841862 91.13701439 342.94841862 91.13701439 C343.28873112 90.27076439 343.28873112 90.27076439 343.63591862 89.38701439 C347.05134055 83.53200536 352.88330746 81.68423586 359.06169987 79.89482689 C363.53704716 79.02224661 367.77438136 78.77136397 372.32341862 78.76201439 C373.44623234 78.7595974 373.44623234 78.7595974 374.59172916 78.75713158 C379.36079701 78.85271472 383.3436696 79.79142006 387.94841862 81.13701439 C388.01710527 120.33155702 388.06995784 159.5260918 388.10161461 198.72068261 C388.10536667 203.34936882 388.10924964 207.97805492 388.11321354 212.60674095 C388.11400047 213.52821781 388.1147874 214.44969467 388.11559818 215.39909507 C388.12864733 230.31386766 388.15229848 245.22860551 388.17987701 260.1433575 C388.20794485 275.4505516 388.2245978 290.75772752 388.2306841 306.06494629 C388.23479768 315.50812065 388.24778389 324.95119682 388.27216802 334.39434095 C388.28804222 340.87239354 388.29281516 347.35039547 388.28892275 353.8284661 C388.28700382 357.56436385 388.28991775 361.30009017 388.30603504 365.03595734 C388.32340511 369.09196107 388.31736623 373.14760166 388.30918217 377.20363426 C388.31792069 378.37680887 388.32665922 379.54998348 388.33566254 380.75870883 C388.27052968 392.71285197 385.42500492 402.35201921 377.06169987 411.11357689 C369.11095276 418.4551312 361.58782048 421.26394885 350.7596693 421.26006222 C348.91819228 421.26304879 348.91819228 421.26304879 347.03951371 421.2660957 C345.68550957 421.26324304 344.33150562 421.26029745 342.97750187 421.25726891 C341.53276802 421.25770513 340.08803424 421.25858097 338.64330089 421.25985807 C334.67769759 421.26209303 330.71212133 421.25809539 326.74652147 421.25308001 C322.46846836 421.24876138 318.19041678 421.25022294 313.9123621 421.25098228 C306.50179146 421.25150662 299.09122963 421.24836922 291.6806612 421.24274445 C280.96622432 421.23461726 270.2517917 421.23201297 259.53735207 421.23075645 C242.15386403 421.22856786 224.77038068 421.22191296 207.38689518 421.21245384 C190.50050219 421.20327477 173.61411047 421.19619635 156.72771549 421.19194603 C155.68683038 421.19168331 154.64594526 421.19142058 153.57351817 421.1911499 C148.35170112 421.18984486 143.12988406 421.18858115 137.90806699 421.18733799 C94.58818095 421.17697136 51.26830002 421.15935825 7.94841862 421.13701439 C7.94841862 416.96621033 8.98738711 413.18283839 9.94841862 409.13701439 C10.17787174 408.15474876 10.40732487 407.17248314 10.64373112 406.16045189 C10.88865299 405.14209251 11.13357487 404.12373314 11.38591862 403.07451439 C11.61150455 402.13478783 11.83709049 401.19506126 12.06951237 400.22685814 C12.94841862 397.13701439 12.94841862 397.13701439 14.26482487 393.75029564 C16.5437588 387.80730401 18.15237817 381.64742666 19.8551569 375.52080345 C20.44348338 373.40476498 21.03728785 371.29032499 21.63201237 369.17607689 C23.34382328 363.06738257 25.01684276 356.95485083 26.53044987 350.79326439 C27.88902438 345.26708209 29.47158329 339.8279526 31.13591862 334.38701439 C31.40855534 333.48724876 31.68119205 332.58748314 31.96209049 331.66045189 C32.62161666 329.48517261 33.28372903 327.31072027 33.94841862 325.13701439 C35.26841862 325.13701439 36.58841862 325.13701439 37.94841862 325.13701439 C39.26482487 327.04326439 39.26482487 327.04326439 40.51091862 329.63701439 C46.16349288 339.5782333 55.41799738 344.0967641 66.13201237 347.17217064 C93.2470331 354.02724753 121.06503349 349.6415261 145.19939518 335.73393822 C159.20048412 327.32875939 171.84537409 316.50707903 181.94060612 303.67998314 C183.68920874 301.46531328 185.50153075 299.36033034 187.38591862 297.26201439 C189.5914878 294.72652628 190.9610726 292.39525626 191.94841862 289.13701439 C192.60841862 289.13701439 193.26841862 289.13701439 193.94841862 289.13701439 C194.15466862 288.33263939 194.36091862 287.52826439 194.57341862 286.69951439 C195.75325895 283.64265535 196.8337653 281.74850529 198.69841862 279.13701439 C202.77667388 273.2384647 205.26896247 266.75550008 207.94841862 260.13701439 C208.30806705 259.3390847 208.66771549 258.54115501 209.03826237 257.71904564 C219.19058882 234.68264225 221.47385834 208.54064354 214.78826237 184.40263939 C213.94841862 181.13701439 213.94841862 181.13701439 213.94841862 178.13701439 C213.28841862 177.80701439 212.62841862 177.47701439 211.94841862 177.13701439 C211.32341862 174.57451439 211.32341862 174.57451439 210.94841862 172.13701439 C210.28841862 172.13701439 209.62841862 172.13701439 208.94841862 172.13701439 C208.59779362 171.31201439 208.24716862 170.48701439 207.88591862 169.63701439 C205.01996737 163.90511189 200.7947012 158.82874033 194.94841862 156.13701439 C193.94841862 155.13701439 192.94841862 154.13701439 191.94841862 153.13701439 C190.95841862 152.80701439 189.96841862 152.47701439 188.94841862 152.13701439 C188.94841862 151.47701439 188.94841862 150.81701439 188.94841862 150.13701439 C162.33250214 139.24868492 136.34333749 137.67017388 109.52996159 148.57964134 C98.74585838 153.23777086 89.11901316 159.56221907 80.21794987 167.19170189 C78.18445525 168.93469728 76.10968119 170.55705693 73.94841862 172.13701439 C72.53796001 169.31609716 73.34548301 167.85384884 74.13591862 164.82451439 C74.3769733 163.87963158 74.61802799 162.93474876 74.86638737 161.96123314 C76.46134275 156.32418866 78.22556359 150.73629324 79.94841862 145.13701439 C52.72341862 145.63201439 52.72341862 145.63201439 24.94841862 146.13701439 C21.97959491 156.6515808 21.97959491 156.6515808 19.01081181 167.16615868 C16.68085122 175.41828076 14.35079028 183.67037448 12.02039146 191.92237282 C10.63046099 196.84416515 9.24059568 201.76597587 7.85076237 206.68779564 C7.56813478 207.68866203 7.2855072 208.68952843 6.99431515 209.72072411 C3.03984608 223.72510173 -0.91145479 237.73036953 -4.86029339 251.73633575 C-6.46366028 257.42274656 -8.06765976 263.10897897 -9.6716814 268.79520512 C-10.9428354 273.30165133 -12.2135583 277.80821812 -13.48322201 282.31508446 C-19.57850076 303.95030406 -25.74256853 325.56305796 -32.05158138 347.13701439 C-32.71158138 346.80701439 -33.37158138 346.47701439 -34.05158138 346.13701439 C-34.14320084 306.10178843 -34.21365256 266.06657617 -34.2558427 226.03126626 C-34.26084534 221.30129737 -34.26602264 216.57132868 -34.27130795 211.84136009 C-34.27235719 210.89973586 -34.27340643 209.95811163 -34.27448747 208.98795333 C-34.29187751 193.75510066 -34.32340747 178.52230858 -34.36019257 163.28949181 C-34.397641 147.6511912 -34.41982548 132.01292226 -34.42793536 116.37457865 C-34.43341505 106.73023416 -34.45070212 97.08606091 -34.48324725 87.44176915 C-34.50444333 80.82211996 -34.51076993 74.2025589 -34.50558689 67.58287827 C-34.50303301 63.76757339 -34.50685905 59.9525671 -34.52840328 56.13731575 C-34.55164838 51.99031954 -34.54348938 47.84395216 -34.53259945 43.69690514 C-34.54425081 42.50523241 -34.55590218 41.31355969 -34.56790662 40.08577567 C-34.50761004 31.55605635 -33.85965306 20.38032818 -27.42658138 14.01201439 C-26.64283138 13.39326439 -25.85908138 12.77451439 -25.05158138 12.13701439 C-24.39158138 11.14701439 -23.73158138 10.15701439 -23.05158138 9.13701439 C-22.39158138 9.13701439 -21.73158138 9.13701439 -21.05158138 9.13701439 C-21.05158138 8.47701439 -21.05158138 7.81701439 -21.05158138 7.13701439 C-19.1153304 6.15538017 -17.177536 5.17678985 -15.23908138 4.19951439 C-14.16013607 3.65424095 -13.08119076 3.10896751 -11.96955013 2.54717064 C-7.71217408 0.48972384 -4.68695548 0.009893 0 0 Z " fill="#1474CE" transform="translate(39.051581382751465,5.862985610961914)"/>
<path d="M0 0 C1.12281372 -0.00241699 1.12281372 -0.00241699 2.26831055 -0.00488281 C7.03737839 0.09070033 11.02025098 1.02940567 15.625 2.375 C15.69368665 41.56954263 15.74653922 80.76407741 15.77819599 119.95866822 C15.78194805 124.58735444 15.78583102 129.21604053 15.78979492 133.84472656 C15.79058185 134.76620342 15.79136878 135.68768028 15.79217956 136.63708068 C15.80522871 151.55185327 15.82887986 166.46659112 15.85645839 181.38134311 C15.88452623 196.68853721 15.90117918 211.99571313 15.90726548 227.3029319 C15.91137906 236.74610626 15.92436528 246.18918243 15.9487494 255.63232656 C15.9646236 262.11037915 15.96939654 268.58838109 15.96550413 275.06645171 C15.96358521 278.80234946 15.96649913 282.53807578 15.98261642 286.27394295 C15.99998649 290.32994668 15.99394762 294.38558727 15.98576355 298.44161987 C15.99450207 299.61479448 16.0032406 300.78796909 16.01224393 301.99669445 C15.94711107 313.95083758 13.1015863 323.59000482 4.73828125 332.3515625 C-3.21246586 339.69311681 -10.73559813 342.50193446 -21.56374931 342.49804783 C-23.40522633 342.5010344 -23.40522633 342.5010344 -25.28390491 342.50408131 C-26.63790905 342.50122865 -27.99191299 342.49828307 -29.34591675 342.49525452 C-30.7906506 342.49569074 -32.23538437 342.49656658 -33.68011773 342.49784368 C-37.64572102 342.50007864 -41.61129729 342.496081 -45.57689714 342.49106562 C-49.85495025 342.48674699 -54.13300184 342.48820855 -58.41105652 342.4889679 C-65.82162716 342.48949223 -73.23218899 342.48635483 -80.64275742 342.48073006 C-91.3571943 342.47260287 -102.07162692 342.46999858 -112.78606655 342.46874207 C-130.16955459 342.46655347 -147.55303794 342.45989857 -164.93652344 342.45043945 C-181.82291643 342.44126038 -198.70930814 342.43418196 -215.59570312 342.42993164 C-216.63658824 342.42966892 -217.67747336 342.42940619 -218.74990045 342.42913551 C-223.9717175 342.42783047 -229.19353456 342.42656676 -234.41535163 342.42532361 C-277.73523767 342.41495697 -321.05511859 342.39734386 -364.375 342.375 C-364.375 338.20419594 -363.33603151 334.420824 -362.375 330.375 C-362.14554687 329.39273437 -361.91609375 328.41046875 -361.6796875 327.3984375 C-361.31230469 325.87089844 -361.31230469 325.87089844 -360.9375 324.3125 C-360.71191406 323.37277344 -360.48632812 322.43304688 -360.25390625 321.46484375 C-359.375 318.375 -359.375 318.375 -358.05859375 314.98828125 C-355.77965982 309.04528962 -354.17104045 302.88541227 -352.46826172 296.75878906 C-351.87993523 294.64275059 -351.28613076 292.5283106 -350.69140625 290.4140625 C-348.97959534 284.30536818 -347.30657585 278.19283644 -345.79296875 272.03125 C-344.43439424 266.5050677 -342.85183533 261.06593821 -341.1875 255.625 C-340.91486328 254.72523438 -340.64222656 253.82546875 -340.36132812 252.8984375 C-339.70180196 250.72315822 -339.03968959 248.54870588 -338.375 246.375 C-337.055 246.375 -335.735 246.375 -334.375 246.375 C-333.05859375 248.28125 -333.05859375 248.28125 -331.8125 250.875 C-326.15992574 260.81621891 -316.90542124 265.33474971 -306.19140625 268.41015625 C-279.07638551 275.26523314 -251.25838513 270.87951171 -227.12402344 256.97192383 C-213.1229345 248.566745 -200.47804453 237.74506464 -190.3828125 224.91796875 C-188.63420988 222.70329889 -186.82188786 220.59831596 -184.9375 218.5 C-182.73193082 215.96451189 -181.36234602 213.63324187 -180.375 210.375 C-179.715 210.375 -179.055 210.375 -178.375 210.375 C-178.16875 209.570625 -177.9625 208.76625 -177.75 207.9375 C-176.57015967 204.88064096 -175.48965332 202.9864909 -173.625 200.375 C-169.54674473 194.47645031 -167.05445615 187.99348569 -164.375 181.375 C-164.01535156 180.57707031 -163.65570313 179.77914062 -163.28515625 178.95703125 C-154.95352372 160.05192128 -152.8324488 138.81109521 -153.375 118.375 C-152.735625 118.08625 -152.09625 117.7975 -151.4375 117.5 C-149.22293921 116.54676549 -149.22293921 116.54676549 -148.375 114.375 C-140.455 114.375 -132.535 114.375 -124.375 114.375 C-122.84305779 117.43888442 -124.04860549 119.46890627 -124.96362305 122.72729492 C-125.14632059 123.38545732 -125.32901814 124.04361971 -125.51725197 124.72172642 C-126.13353015 126.93495878 -126.76013825 129.14513284 -127.38671875 131.35546875 C-127.82777937 132.93116324 -128.26821032 134.50703411 -128.70805359 136.08306885 C-129.90253004 140.35601861 -131.1059593 144.62640089 -132.31102753 148.89637375 C-133.56287643 153.33777027 -134.80660449 157.78143957 -136.05126953 162.22485352 C-138.63391946 171.4390582 -141.22667237 180.65039788 -143.82183838 189.86108398 C-145.34449585 195.2655951 -146.86472716 200.67078639 -148.38427734 206.07617188 C-154.03591289 226.17916242 -159.69999608 246.27859241 -165.375 266.375 C-135.675 266.87 -135.675 266.87 -105.375 267.375 C-104.715 264.075 -104.055 260.775 -103.375 257.375 C-102.90885892 255.16388053 -102.43154348 252.9550528 -101.9375 250.75 C-101.71191406 249.72648438 -101.48632812 248.70296875 -101.25390625 247.6484375 C-100.42927152 244.57713126 -99.35001185 241.69470646 -98.20678711 238.73144531 C-96.4552355 233.76931554 -95.21146698 228.64866144 -93.875 223.5625 C-93.2814009 221.32678285 -92.6876523 219.09110538 -92.09375 216.85546875 C-91.80580566 215.76790283 -91.51786133 214.68033691 -91.22119141 213.55981445 C-89.24302915 206.11459614 -87.20560739 198.69354176 -85 191.3125 C-81.12661799 178.22451495 -77.47726683 165.09586535 -74.26953125 151.828125 C-73.7209772 149.71056264 -73.11722699 147.60524923 -72.42260742 145.53100586 C-71.42118245 142.51412853 -70.54982303 139.4934622 -69.71875 136.42578125 C-69.41839844 135.33072266 -69.11804688 134.23566406 -68.80859375 133.10742188 C-68.18322019 130.81656601 -67.56085155 128.52488784 -66.94140625 126.23242188 C-66.64105469 125.14123047 -66.34070313 124.05003906 -66.03125 122.92578125 C-65.76119141 121.93231689 -65.49113281 120.93885254 -65.21289062 119.9152832 C-64.375 117.375 -64.375 117.375 -62.375 114.375 C-59.60871085 114.1082384 -57.06880369 114.02695811 -54.3046875 114.08203125 C-53.11034592 114.08839851 -53.11034592 114.08839851 -51.89187622 114.09489441 C-49.34424271 114.11171166 -46.79739511 114.14936821 -44.25 114.1875 C-42.52475099 114.20254295 -40.79948961 114.21623204 -39.07421875 114.22851562 C-34.84084218 114.26162499 -30.60805441 114.31342715 -26.375 114.375 C-26.375 113.715 -26.375 113.055 -26.375 112.375 C-25.046875 111.0703125 -25.046875 111.0703125 -23.125 109.5 C-21.53868606 108.12843975 -19.95584189 106.7528637 -18.375 105.375 C-17.85067383 104.92237793 -17.32634766 104.46975586 -16.78613281 104.00341797 C-15.08044196 102.50883726 -13.41430453 100.97792897 -11.75 99.4375 C-10.9142041 98.72134521 -10.9142041 98.72134521 -10.06152344 97.99072266 C-8.25928613 96.38926612 -8.25928613 96.38926612 -6.375 93.375 C-6.50078516 91.15118284 -6.9861669 89.39100148 -7.74853516 87.30249023 C-8.375 85.375 -8.375 85.375 -8.375 81.375 C-9.035 81.045 -9.695 80.715 -10.375 80.375 C-11.86 73.445 -11.86 73.445 -13.375 66.375 C-30.7 66.87 -30.7 66.87 -48.375 67.375 C-48.375 59.49376184 -48.375 59.49376184 -47.0546875 55.0390625 C-46.62675903 53.57738647 -46.62675903 53.57738647 -46.19018555 52.08618164 C-45.87992432 51.0677417 -45.56966309 50.04930176 -45.25 49 C-44.77784058 47.42109985 -44.77784058 47.42109985 -44.29614258 45.81030273 C-42.33108855 39.31491316 -40.2790414 32.85159039 -38.0625 26.4375 C-37.82063965 25.72867676 -37.5787793 25.01985352 -37.32958984 24.28955078 C-35.6197303 19.49736515 -35.6197303 19.49736515 -33.375 18.375 C-32.64806096 16.39611039 -31.97683749 14.39545442 -31.375 12.375 C-30.715 12.375 -30.055 12.375 -29.375 12.375 C-29.0346875 11.50875 -29.0346875 11.50875 -28.6875 10.625 C-25.27207806 4.76999097 -19.44011116 2.92222148 -13.26171875 1.1328125 C-8.78637145 0.26023222 -4.54903726 0.00934958 0 0 Z " fill="#1C1275" transform="translate(411.375,84.625)"/>
<path d="M0 0 C7.46365518 7.09448514 10.7991224 14.37962756 11.21899414 24.66113281 C11.5204646 43.5757686 4.45914442 60.74144865 -8.18359375 74.7265625 C-8.81007813 75.43425781 -9.4365625 76.14195312 -10.08203125 76.87109375 C-16.17618712 83.37567237 -23.69357817 88.82615917 -32.18359375 91.7265625 C-33.17359375 91.7265625 -34.16359375 91.7265625 -35.18359375 91.7265625 C-35.51359375 92.3865625 -35.84359375 93.0465625 -36.18359375 93.7265625 C-38.16359375 93.7265625 -40.14359375 93.7265625 -42.18359375 93.7265625 C-42.18359375 94.3865625 -42.18359375 95.0465625 -42.18359375 95.7265625 C-53.22240076 96.65272091 -63.24499317 96.85448962 -74.18359375 94.7265625 C-74.18359375 94.0665625 -74.18359375 93.4065625 -74.18359375 92.7265625 C-74.88484375 92.6440625 -75.58609375 92.5615625 -76.30859375 92.4765625 C-83.22763058 90.67159637 -88.27638518 85.51642121 -92.18359375 79.7265625 C-99.19590302 65.16728108 -95.93710759 51.50260806 -91.2734375 36.87109375 C-89.1907923 31.20016808 -86.19958805 26.29410847 -82.8671875 21.26953125 C-81.15824888 18.76618777 -81.15824888 18.76618777 -79.78125 16.16015625 C-77.91449506 13.316664 -75.88719465 11.65340247 -73.18359375 9.6015625 C-69.82384773 7.07985774 -69.82384773 7.07985774 -66.75244141 4.2331543 C-64.11706349 1.70235487 -60.804069 0.2721004 -57.55859375 -1.3359375 C-56.83728271 -1.69373291 -56.11597168 -2.05152832 -55.37280273 -2.42016602 C-50.37504604 -4.83553284 -45.72627124 -6.61749934 -40.18359375 -7.2734375 C-39.51972656 -7.39203125 -38.85585937 -7.510625 -38.171875 -7.6328125 C-25.31247076 -9.62946676 -10.34031471 -8.48114701 0 0 Z " fill="#2A3FB4" transform="translate(184.18359375,207.2734375)"/>
<path d="" fill="#1B3999" transform="translate(0,0)"/>
<path d="" fill="#1B3999" transform="translate(0,0)"/>
</svg>
